<?xml version="1.0" encoding="utf-8"?>
<!-- Hearts icon by Arthur Shlain from Usefulicons.com -->
<svg xmlns="http://www.w3.org/2000/svg" xmlns:xlink="http://www.w3.org/1999/xlink" xml:space="preserve" version="1.1" x="0px" y="0px" viewBox="0 0 100 100" width="400px" height="400px"><g style="fill: #e0e0e0"><path d="M73.1,10c-5.3,0-10,3.7-13.1,7.5c-3.1-3.8-7.8-7.5-13.1-7.5C37.6,10,30,17.6,30,26.9c0,1.4,0.2,2.8,0.5,4.2   c1.5,0.5,3.1,1.2,4.5,2c3.5-2,7.2-3.1,10.9-3.1C59.2,30,70,40.8,70,54.1c0,2.7-0.5,5.4-1.3,8.1C77.6,53.6,90,39.3,90,26.9   C90,17.6,82.4,10,73.1,10z" stroke="none"></path><path d="M45.9,40c-4.4,0-8.4,3.1-10.9,6.3c-2.6-3.2-6.5-6.3-10.9-6.3C16.3,40,10,46.3,10,54.1C10,70.2,35,90,35,90s25-19.8,25-35.9   C60,46.3,53.7,40,45.9,40z" stroke="none"></path></g></svg>