<svg xmlns="http://www.w3.org/2000/svg" xmlns:xlink="http://www.w3.org/1999/xlink" width="32px" height="32px" viewBox="0 0 32 32" version="1.1">
<g id="surface1">
<path style=" stroke:none;fill-rule:nonzero;fill:#fc7f7f;fill-opacity:1;" d="M 25.601562 20.796875 L 25.601562 22.398438 C 26.039062 22.398438 26.398438 22.757812 26.398438 23.203125 C 26.398438 23.640625 26.039062 24 25.601562 24 C 24.375 24 23.296875 22.945312 22.164062 21.828125 C 20.84375 20.539062 19.484375 19.203125 17.601562 19.203125 C 17.03125 19.203125 16.484375 19.351562 16 19.632812 C 15.515625 19.351562 14.96875 19.203125 14.398438 19.203125 C 12.515625 19.203125 11.15625 20.539062 9.835938 21.828125 C 8.703125 22.945312 7.625 24 6.398438 24 C 5.960938 24 5.601562 23.640625 5.601562 23.203125 C 5.601562 22.757812 5.960938 22.398438 6.398438 22.398438 L 6.398438 20.796875 C 4.632812 20.796875 3.203125 22.234375 3.203125 24 C 3.203125 25.765625 4.632812 27.203125 6.398438 27.203125 C 8.757812 27.203125 13.015625 26.804688 16 24.289062 C 18.984375 26.804688 23.242188 27.203125 25.601562 27.203125 C 27.367188 27.203125 28.796875 25.765625 28.796875 24 C 28.796875 22.234375 27.367188 20.796875 25.601562 20.796875 Z M 25.601562 20.796875 "/>
<path style=" stroke:none;fill-rule:nonzero;fill:#fc7f7f;fill-opacity:1;" d="M 8.796875 16 C 11.890625 16 14.398438 13.492188 14.398438 10.398438 C 14.398438 10.34375 14.390625 10.28125 14.390625 10.226562 C 14.820312 9.835938 15.382812 9.601562 16 9.601562 C 16.617188 9.601562 17.179688 9.835938 17.609375 10.226562 C 17.609375 10.28125 17.601562 10.34375 17.601562 10.398438 C 17.601562 13.492188 20.109375 16 23.203125 16 C 26.289062 16 28.796875 13.492188 28.796875 10.398438 C 28.796875 7.304688 26.289062 4.796875 23.203125 4.796875 C 20.773438 4.796875 18.71875 6.34375 17.9375 8.5 C 17.359375 8.179688 16.703125 8 16 8 C 15.296875 8 14.640625 8.179688 14.0625 8.5 C 13.28125 6.34375 11.226562 4.796875 8.796875 4.796875 C 5.710938 4.796875 3.203125 7.304688 3.203125 10.398438 C 3.203125 13.492188 5.710938 16 8.796875 16 Z M 8.796875 16 "/>
</g>
</svg>