<svg xmlns="http://www.w3.org/2000/svg" xmlns:xlink="http://www.w3.org/1999/xlink" width="32px" height="32px" viewBox="0 0 32 32" version="1.1">
<g id="surface1">
<path style=" stroke:none;fill-rule:nonzero;fill:#fc7f7f;fill-opacity:1;" d="M 25.601562 22.398438 L 22.398438 22.398438 L 22.398438 19.199219 L 9.601562 19.199219 L 9.601562 22.398438 L 6.398438 22.398438 L 6.398438 19.199219 L 3.199219 19.199219 L 3.199219 25.601562 C 3.199219 27.359375 4.640625 28.800781 6.398438 28.800781 L 25.601562 28.800781 C 27.359375 28.800781 28.800781 27.359375 28.800781 25.601562 L 28.800781 19.199219 L 25.601562 19.199219 Z M 25.601562 22.398438 "/>
<path style=" stroke:none;fill-rule:nonzero;fill:#fc7f7f;fill-opacity:1;" d="M 25.601562 9.601562 L 22.398438 9.601562 L 22.398438 6.398438 C 22.398438 4.640625 20.960938 3.199219 19.199219 3.199219 L 12.800781 3.199219 C 11.039062 3.199219 9.601562 4.640625 9.601562 6.398438 L 9.601562 9.601562 L 6.398438 9.601562 C 4.640625 9.601562 3.199219 11.039062 3.199219 12.800781 L 3.199219 16 L 28.800781 16 L 28.800781 12.800781 C 28.800781 11.039062 27.359375 9.601562 25.601562 9.601562 Z M 19.199219 9.601562 L 12.800781 9.601562 L 12.800781 6.398438 L 19.199219 6.398438 Z M 19.199219 9.601562 "/>
</g>
</svg>