<?xml version="1.0" encoding="utf-8"?>
<!-- Rocket icon by Arthur Shlain from Usefulicons.com -->
<svg xmlns="http://www.w3.org/2000/svg" xmlns:xlink="http://www.w3.org/1999/xlink" xml:space="preserve" version="1.1" x="0px" y="0px" viewBox="0 0 100 100" width="400px" height="400px"><g style="fill: #fc7f7f"><path d="M90,10C73.993,10,58.641,16.359,47.322,27.678L35,40L33.416,40.528C24.593,43.469,16.576,48.424,10,55L15,60C19.142,55.858,25.858,55.858,30,60L25,65L35,75L40,70C44.142,74.142,44.142,80.858,40,85L45,90C51.576,83.424,56.531,75.407,59.472,66.584L60,65L60,65L72.322,52.678C83.641,41.359,90,26.007,90,10ZM70,25C70,22.239,72.239,20,75,20S80,22.239,80,25S77.761,30,75,30S70,27.761,70,25Z" stroke="none"></path><path d="M15.858,72.426C12.623,75.662,10,90,10,90S24.338,87.377,27.574,84.142C30.809,80.907,30.809,75.661,27.574,72.426C24.338,69.191,19.093,69.191,15.858,72.426Z" stroke="none"></path></g></svg>