<?xml version="1.0" encoding="UTF-8"?>
<svg xmlns="http://www.w3.org/2000/svg" xmlns:xlink="http://www.w3.org/1999/xlink" width="32px" height="32px" viewBox="0 0 32 32" version="1.1">
<g id="surface1">
<path style=" stroke:none;fill-rule:nonzero;fill:rgb(98.823529%,49.803922%,49.803922%);fill-opacity:1;" d="M 16 22.398438 C 12.472656 22.398438 9.601562 25.269531 9.601562 28.800781 L 11.199219 28.800781 C 11.199219 26.152344 13.351562 24 16 24 C 18.648438 24 20.800781 26.152344 20.800781 28.800781 L 22.398438 28.800781 C 22.398438 25.269531 19.527344 22.398438 16 22.398438 Z M 16 22.398438 "/>
<path style=" stroke:none;fill-rule:nonzero;fill:rgb(98.823529%,49.803922%,49.803922%);fill-opacity:1;" d="M 15.199219 16 L 16.800781 16 L 16.800781 20.800781 L 15.199219 20.800781 Z M 15.199219 16 "/>
<path style=" stroke:none;fill-rule:nonzero;fill:rgb(98.823529%,49.803922%,49.803922%);fill-opacity:1;" d="M 8.90625 18.113281 L 10.292969 17.316406 L 12.691406 21.472656 L 11.308594 22.273438 Z M 8.90625 18.113281 "/>
<path style=" stroke:none;fill-rule:nonzero;fill:rgb(98.823529%,49.803922%,49.803922%);fill-opacity:1;" d="M 4.515625 23.09375 L 5.3125 21.707031 L 9.472656 24.105469 L 8.671875 25.492188 Z M 4.515625 23.09375 "/>
<path style=" stroke:none;fill-rule:nonzero;fill:rgb(98.823529%,49.803922%,49.803922%);fill-opacity:1;" d="M 19.308594 21.472656 L 21.707031 17.316406 L 23.09375 18.117188 L 20.691406 22.273438 Z M 19.308594 21.472656 "/>
<path style=" stroke:none;fill-rule:nonzero;fill:rgb(98.823529%,49.803922%,49.803922%);fill-opacity:1;" d="M 22.527344 24.105469 L 26.683594 21.707031 L 27.484375 23.09375 L 23.328125 25.492188 Z M 22.527344 24.105469 "/>
<path style=" stroke:none;fill-rule:nonzero;fill:rgb(98.823529%,49.803922%,49.803922%);fill-opacity:1;" d="M 14.398438 12.800781 L 17.601562 12.800781 L 17.601562 8 L 20.800781 8 L 16 3.199219 L 11.199219 8 L 14.398438 8 Z M 14.398438 12.800781 "/>
</g>
</svg>
