<?xml version="1.0" encoding="UTF-8"?>
<svg xmlns="http://www.w3.org/2000/svg" xmlns:xlink="http://www.w3.org/1999/xlink" width="32px" height="32px" viewBox="0 0 32 32" version="1.1">
<g id="surface1">
<path style=" stroke:none;fill-rule:nonzero;fill:rgb(98.823529%,74.901961%,49.411765%);fill-opacity:1;" d="M 29.601562 1.601562 L 26.398438 1.601562 C 25.957031 1.601562 25.601562 1.957031 25.601562 2.398438 L 25.601562 3.199219 L 18.398438 3.199219 L 18.398438 2.398438 C 18.398438 1.957031 18.042969 1.601562 17.601562 1.601562 L 14.398438 1.601562 C 13.957031 1.601562 13.601562 1.957031 13.601562 2.398438 L 13.601562 3.199219 L 6.398438 3.199219 L 6.398438 2.398438 C 6.398438 1.957031 6.042969 1.601562 5.601562 1.601562 L 2.398438 1.601562 C 1.957031 1.601562 1.601562 1.957031 1.601562 2.398438 L 1.601562 5.601562 C 1.601562 6.042969 1.957031 6.398438 2.398438 6.398438 L 3.199219 6.398438 L 3.199219 13.601562 L 2.398438 13.601562 C 1.957031 13.601562 1.601562 13.957031 1.601562 14.398438 L 1.601562 17.601562 C 1.601562 18.042969 1.957031 18.398438 2.398438 18.398438 L 3.199219 18.398438 L 3.199219 25.601562 L 2.398438 25.601562 C 1.957031 25.601562 1.601562 25.957031 1.601562 26.398438 L 1.601562 29.601562 C 1.601562 30.042969 1.957031 30.398438 2.398438 30.398438 L 5.601562 30.398438 C 6.042969 30.398438 6.398438 30.042969 6.398438 29.601562 L 6.398438 28.800781 L 13.601562 28.800781 L 13.601562 29.601562 C 13.601562 30.042969 13.957031 30.398438 14.398438 30.398438 L 17.601562 30.398438 C 18.042969 30.398438 18.398438 30.042969 18.398438 29.601562 L 18.398438 28.800781 L 25.601562 28.800781 L 25.601562 29.601562 C 25.601562 30.042969 25.957031 30.398438 26.398438 30.398438 L 29.601562 30.398438 C 30.042969 30.398438 30.398438 30.042969 30.398438 29.601562 L 30.398438 26.398438 C 30.398438 25.957031 30.042969 25.601562 29.601562 25.601562 L 28.800781 25.601562 L 28.800781 18.398438 L 29.601562 18.398438 C 30.042969 18.398438 30.398438 18.042969 30.398438 17.601562 L 30.398438 14.398438 C 30.398438 13.957031 30.042969 13.601562 29.601562 13.601562 L 28.800781 13.601562 L 28.800781 6.398438 L 29.601562 6.398438 C 30.042969 6.398438 30.398438 6.042969 30.398438 5.601562 L 30.398438 2.398438 C 30.398438 1.957031 30.042969 1.601562 29.601562 1.601562 Z M 15.199219 3.199219 L 16.800781 3.199219 L 16.800781 4.800781 L 15.199219 4.800781 Z M 3.199219 4 L 3.199219 3.199219 L 4.800781 3.199219 L 4.800781 4.800781 L 3.199219 4.800781 Z M 3.199219 15.199219 L 4.800781 15.199219 L 4.800781 16.800781 L 3.199219 16.800781 Z M 4.800781 28.800781 L 3.199219 28.800781 L 3.199219 27.199219 L 4.800781 27.199219 Z M 16.800781 28.800781 L 15.199219 28.800781 L 15.199219 27.199219 L 16.800781 27.199219 Z M 25.601562 26.398438 L 25.601562 27.199219 L 18.398438 27.199219 L 18.398438 26.398438 C 18.398438 25.957031 18.042969 25.601562 17.601562 25.601562 L 14.398438 25.601562 C 13.957031 25.601562 13.601562 25.957031 13.601562 26.398438 L 13.601562 27.199219 L 6.398438 27.199219 L 6.398438 26.398438 C 6.398438 25.957031 6.042969 25.601562 5.601562 25.601562 L 4.800781 25.601562 L 4.800781 18.398438 L 5.601562 18.398438 C 6.042969 18.398438 6.398438 18.042969 6.398438 17.601562 L 6.398438 14.398438 C 6.398438 13.957031 6.042969 13.601562 5.601562 13.601562 L 4.800781 13.601562 L 4.800781 6.398438 L 5.601562 6.398438 C 6.042969 6.398438 6.398438 6.042969 6.398438 5.601562 L 6.398438 4.800781 L 13.601562 4.800781 L 13.601562 5.601562 C 13.601562 6.042969 13.957031 6.398438 14.398438 6.398438 L 17.601562 6.398438 C 18.042969 6.398438 18.398438 6.042969 18.398438 5.601562 L 18.398438 4.800781 L 25.601562 4.800781 L 25.601562 5.601562 C 25.601562 6.042969 25.957031 6.398438 26.398438 6.398438 L 27.199219 6.398438 L 27.199219 13.601562 L 26.398438 13.601562 C 25.957031 13.601562 25.601562 13.957031 25.601562 14.398438 L 25.601562 17.601562 C 25.601562 18.042969 25.957031 18.398438 26.398438 18.398438 L 27.199219 18.398438 L 27.199219 25.601562 L 26.398438 25.601562 C 25.957031 25.601562 25.601562 25.957031 25.601562 26.398438 Z M 28.800781 28 L 28.800781 28.800781 L 27.199219 28.800781 L 27.199219 27.199219 L 28.800781 27.199219 Z M 28.800781 16.800781 L 27.199219 16.800781 L 27.199219 15.199219 L 28.800781 15.199219 Z M 28.800781 4 L 28.800781 4.800781 L 27.199219 4.800781 L 27.199219 3.199219 L 28.800781 3.199219 Z M 28.800781 4 "/>
<path style=" stroke:none;fill-rule:nonzero;fill:rgb(98.823529%,74.901961%,49.411765%);fill-opacity:1;" d="M 18.398438 15.199219 L 16.800781 15.199219 L 16.800781 13.601562 C 16.800781 13.15625 16.441406 12.800781 16 12.800781 C 15.558594 12.800781 15.199219 13.15625 15.199219 13.601562 L 15.199219 15.199219 L 13.601562 15.199219 C 13.15625 15.199219 12.800781 15.558594 12.800781 16 C 12.800781 16.441406 13.15625 16.800781 13.601562 16.800781 L 15.199219 16.800781 L 15.199219 18.398438 C 15.199219 18.84375 15.558594 19.199219 16 19.199219 C 16.441406 19.199219 16.800781 18.84375 16.800781 18.398438 L 16.800781 16.800781 L 18.398438 16.800781 C 18.84375 16.800781 19.199219 16.441406 19.199219 16 C 19.199219 15.558594 18.84375 15.199219 18.398438 15.199219 Z M 18.398438 15.199219 "/>
</g>
</svg>
