<svg xmlns="http://www.w3.org/2000/svg" xmlns:xlink="http://www.w3.org/1999/xlink" width="32px" height="32px" viewBox="0 0 32 32" version="1.1">
<g id="surface1">
<path style=" stroke:none;fill-rule:nonzero;fill:#fb7eaa;fill-opacity:1;" d="M 4.929688 22.398438 L 6.527344 25.183594 L 9.792969 23.296875 C 10.6875 24.0625 11.710938 24.640625 12.832031 25.054688 L 12.832031 28.800781 L 19.230469 28.800781 L 19.230469 25.054688 C 20.351562 24.671875 21.375 24.0625 22.273438 23.296875 L 25.535156 25.183594 L 27.136719 22.398438 L 28.734375 19.617188 L 25.472656 17.726562 C 25.566406 17.152344 25.632812 16.574219 25.632812 15.96875 C 25.632812 15.359375 25.566406 14.785156 25.472656 14.207031 L 28.734375 12.320312 L 27.136719 9.535156 L 25.535156 6.753906 L 22.273438 8.640625 C 21.375 7.871094 20.351562 7.296875 19.230469 6.878906 L 19.230469 3.199219 L 12.800781 3.199219 L 12.800781 6.976562 C 11.679688 7.359375 10.65625 7.96875 9.761719 8.734375 L 6.496094 6.847656 L 4.894531 9.632812 L 3.296875 12.414062 L 6.558594 14.304688 C 6.464844 14.816406 6.398438 15.390625 6.398438 16 C 6.398438 16.609375 6.464844 17.183594 6.558594 17.761719 L 3.296875 19.648438 Z M 16 12.800781 C 17.761719 12.800781 19.199219 14.238281 19.199219 16 C 19.199219 17.761719 17.761719 19.199219 16 19.199219 C 14.238281 19.199219 12.800781 17.761719 12.800781 16 C 12.800781 14.238281 14.238281 12.800781 16 12.800781 Z M 16 12.800781 "/>
</g>
</svg>