<svg xmlns="http://www.w3.org/2000/svg" xmlns:xlink="http://www.w3.org/1999/xlink" width="32px" height="32px" viewBox="0 0 32 32" version="1.1">
<g id="surface1">
<path style=" stroke:none;fill-rule:nonzero;fill:#fc7f7f;fill-opacity:1;" d="M 6.398438 3.199219 L 25.601562 3.199219 L 25.601562 9.601562 L 6.398438 9.601562 Z M 6.398438 3.199219 "/>
<path style=" stroke:none;fill-rule:nonzero;fill:#fc7f7f;fill-opacity:1;" d="M 3.199219 22.398438 L 9.601562 22.398438 L 9.601562 28.800781 L 3.199219 28.800781 Z M 3.199219 22.398438 "/>
<path style=" stroke:none;fill-rule:nonzero;fill:#fc7f7f;fill-opacity:1;" d="M 12.800781 22.398438 L 19.199219 22.398438 L 19.199219 28.800781 L 12.800781 28.800781 Z M 12.800781 22.398438 "/>
<path style=" stroke:none;fill-rule:nonzero;fill:#fc7f7f;fill-opacity:1;" d="M 22.398438 22.398438 L 28.800781 22.398438 L 28.800781 28.800781 L 22.398438 28.800781 Z M 22.398438 22.398438 "/>
<path style=" stroke:none;fill-rule:nonzero;fill:#fc7f7f;fill-opacity:1;" d="M 7.242188 20.800781 L 10.441406 11.199219 L 8.757812 11.199219 L 5.558594 20.800781 Z M 7.242188 20.800781 "/>
<path style=" stroke:none;fill-rule:nonzero;fill:#fc7f7f;fill-opacity:1;" d="M 15.199219 11.199219 L 16.800781 11.199219 L 16.800781 20.800781 L 15.199219 20.800781 Z M 15.199219 11.199219 "/>
<path style=" stroke:none;fill-rule:nonzero;fill:#fc7f7f;fill-opacity:1;" d="M 21.558594 11.199219 L 24.757812 20.800781 L 26.441406 20.800781 L 23.242188 11.199219 Z M 21.558594 11.199219 "/>
</g>
</svg>