<?xml version="1.0" encoding="UTF-8"?>
<svg xmlns="http://www.w3.org/2000/svg" xmlns:xlink="http://www.w3.org/1999/xlink" width="16px" height="16px" viewBox="0 0 16 16" version="1.1">
<g id="surface1">
<path style=" stroke:none;fill-rule:nonzero;fill:rgb(55.686277%,93.725491%,59.215689%);fill-opacity:1;" d="M 15.199219 7.601562 L 13.984375 7.601562 C 13.792969 4.609375 11.390625 2.207031 8.398438 2.015625 L 8.398438 0.800781 L 7.601562 0.800781 L 7.601562 2.015625 C 4.609375 2.207031 2.207031 4.609375 2.015625 7.601562 L 0.800781 7.601562 L 0.800781 8.398438 L 2.015625 8.398438 C 2.207031 11.390625 4.609375 13.792969 7.601562 13.984375 L 7.601562 15.199219 L 8.398438 15.199219 L 8.398438 13.984375 C 11.390625 13.792969 13.792969 11.390625 13.984375 8.398438 L 15.199219 8.398438 Z M 8.398438 12.785156 L 8.398438 10 L 7.601562 10 L 7.601562 12.785156 C 5.265625 12.59375 3.40625 10.734375 3.214844 8.398438 L 6 8.398438 L 6 7.601562 L 3.214844 7.601562 C 3.40625 5.265625 5.265625 3.40625 7.601562 3.214844 L 7.601562 6 L 8.398438 6 L 8.398438 3.214844 C 10.734375 3.40625 12.59375 5.265625 12.785156 7.601562 L 10 7.601562 L 10 8.398438 L 12.785156 8.398438 C 12.59375 10.734375 10.734375 12.59375 8.398438 12.785156 Z M 8.398438 12.785156 "/>
<path style=" stroke:none;fill-rule:nonzero;fill:rgb(55.686277%,93.725491%,59.215689%);fill-opacity:1;" d="M 7.601562 7.601562 L 8.398438 7.601562 L 8.398438 8.398438 L 7.601562 8.398438 Z M 7.601562 7.601562 "/>
</g>
</svg>
