<?xml version="1.0" encoding="UTF-8"?>
<svg xmlns="http://www.w3.org/2000/svg" xmlns:xlink="http://www.w3.org/1999/xlink" width="32px" height="32px" viewBox="0 0 32 32" version="1.1">
<g id="surface1">
<path style=" stroke:none;fill-rule:nonzero;fill:rgb(87.843137%,87.843137%,87.843137%);fill-opacity:1;" d="M 23.390625 3.203125 C 21.695312 3.203125 20.195312 4.382812 19.203125 5.601562 C 18.210938 4.382812 16.703125 3.203125 15.007812 3.203125 C 12.03125 3.203125 9.601562 5.632812 9.601562 8.609375 C 9.601562 9.054688 9.664062 9.507812 9.757812 9.953125 C 10.242188 10.109375 10.75 10.335938 11.203125 10.59375 C 12.320312 9.953125 13.507812 9.601562 14.6875 9.601562 C 18.945312 9.601562 22.398438 13.054688 22.398438 17.3125 C 22.398438 18.179688 22.242188 19.039062 21.984375 19.90625 C 24.828125 17.148438 28.796875 12.578125 28.796875 8.609375 C 28.796875 5.632812 26.367188 3.203125 23.390625 3.203125 Z M 23.390625 3.203125 "/>
<path style=" stroke:none;fill-rule:nonzero;fill:rgb(87.843137%,87.843137%,87.843137%);fill-opacity:1;" d="M 14.6875 12.796875 C 13.28125 12.796875 12 13.789062 11.203125 14.8125 C 10.367188 13.789062 9.117188 12.796875 7.710938 12.796875 C 5.21875 12.796875 3.203125 14.8125 3.203125 17.3125 C 3.203125 22.460938 11.203125 28.796875 11.203125 28.796875 C 11.203125 28.796875 19.203125 22.460938 19.203125 17.3125 C 19.203125 14.8125 17.1875 12.796875 14.6875 12.796875 Z M 14.6875 12.796875 "/>
</g>
</svg>
