<?xml version="1.0" encoding="utf-8"?>
<!-- Disguise icon by Arthur Shlain from Usefulicons.com -->
<svg xmlns="http://www.w3.org/2000/svg" xmlns:xlink="http://www.w3.org/1999/xlink" xml:space="preserve" version="1.1" x="0px" y="0px" viewBox="0 0 100 100" width="400px" height="400px"><g style="fill: #ff6a6a"><path d="M80,65L80,70C81.378,70,82.5,71.122,82.5,72.5S81.378,75,80,75C76.163,75,72.806,71.705,69.251,68.216C65.136,64.177,60.881,60,55,60C53.232,60,51.512,60.47,50,61.346C48.488,60.47,46.768,60,45,60C39.119,60,34.864,64.177,30.749,68.216C27.194,71.705,23.837,75,20,75C18.622,75,17.5,73.878,17.5,72.5S18.622,70,20,70L20,65C14.486,65,10,69.486,10,75S14.486,85,20,85C27.376,85,40.674,83.771,50,75.892C59.326,83.771,72.624,85,80,85C85.514,85,90,80.514,90,75S85.514,65,80,65Z" stroke="none"></path><path d="M27.5,50C37.165,50,45,42.165,45,32.5C45,32.315,44.978,32.135,44.972,31.951C46.304,30.743,48.065,30,50,30S53.696,30.743,55.028,31.951C55.022,32.135,55,32.315,55,32.5C55,42.165,62.835,50,72.5,50S90,42.165,90,32.5S82.165,15,72.5,15C64.92,15,58.484,19.829,56.052,26.571C54.257,25.573,52.195,25,50,25S45.743,25.573,43.948,26.571C41.516,19.829,35.08,15,27.5,15C17.835,15,10,22.835,10,32.5S17.835,50,27.5,50Z" stroke="none"></path></g></svg>