<?xml version="1.0" encoding="UTF-8"?>
<svg xmlns="http://www.w3.org/2000/svg" xmlns:xlink="http://www.w3.org/1999/xlink" width="32px" height="32px" viewBox="0 0 32 32" version="1.1">
<g id="surface1">
<path style=" stroke:none;fill-rule:nonzero;fill:rgb(98.823529%,49.803922%,49.803922%);fill-opacity:1;" d="M 21.523438 4.78125 L 19.117188 7.183594 C 18.507812 7.792969 17.746094 8.226562 16.910156 8.4375 C 15.652344 8.75 14.5 9.402344 13.585938 10.316406 L 1.601562 22.304688 L 9.695312 30.398438 L 21.683594 18.414062 C 22.597656 17.496094 23.25 16.347656 23.5625 15.089844 C 23.773438 14.253906 24.207031 13.492188 24.816406 12.882812 L 27.21875 10.476562 C 29.269531 8.425781 30.398438 5.699219 30.398438 2.800781 L 30.398438 1.601562 L 29.199219 1.601562 C 26.300781 1.601562 23.574219 2.730469 21.523438 4.78125 Z M 9.695312 27.007812 L 4.992188 22.304688 L 5.980469 21.316406 L 10.683594 26.019531 Z M 21.234375 14.507812 C 21.027344 15.34375 20.59375 16.109375 19.984375 16.71875 L 11.8125 24.890625 L 7.109375 20.1875 L 15.28125 12.015625 C 15.890625 11.40625 16.65625 10.972656 17.492188 10.765625 C 18.316406 10.558594 19.097656 10.203125 19.792969 9.726562 L 22.273438 12.207031 C 21.796875 12.902344 21.441406 13.683594 21.234375 14.507812 Z M 25.523438 8.78125 L 23.316406 10.984375 L 21.015625 8.683594 L 23.21875 6.476562 C 24.507812 5.191406 26.136719 4.367188 27.902344 4.097656 C 27.632812 5.863281 26.808594 7.492188 25.523438 8.78125 Z M 25.523438 8.78125 "/>
</g>
</svg>
