<?xml version="1.0" encoding="UTF-8"?>
<svg xmlns="http://www.w3.org/2000/svg" xmlns:xlink="http://www.w3.org/1999/xlink" width="16px" height="16px" viewBox="0 0 16 16" version="1.1">
<g id="surface1">
<path style=" stroke:none;fill-rule:nonzero;fill:rgb(98.823529%,49.803922%,49.803922%);fill-opacity:1;" d="M 14.371094 12.5 L 13.234375 6.53125 L 14.28125 5.484375 C 14.4375 5.328125 14.4375 5.074219 14.28125 4.917969 C 14.125 4.761719 13.875 4.761719 13.71875 4.917969 L 11.316406 7.316406 C 11.160156 7.472656 11.160156 7.726562 11.316406 7.882812 C 11.394531 7.960938 11.496094 8 11.601562 8 C 11.703125 8 11.804688 7.960938 11.882812 7.882812 L 12.546875 7.21875 L 13.292969 11.105469 L 2.277344 12.808594 L 2.277344 12.8125 C 1.894531 12.871094 1.601562 13.199219 1.601562 13.601562 C 1.601562 14.042969 1.957031 14.398438 2.398438 14.398438 L 12.800781 14.398438 C 13.683594 14.398438 14.398438 13.683594 14.398438 12.800781 C 14.398438 12.695312 14.386719 12.597656 14.367188 12.5 Z M 14.371094 12.5 "/>
<path style=" stroke:none;fill-rule:nonzero;fill:rgb(98.823529%,49.803922%,49.803922%);fill-opacity:1;" d="M 7.199219 2.800781 C 7.199219 2.136719 7.738281 1.601562 8.398438 1.601562 C 9.0625 1.601562 9.601562 2.136719 9.601562 2.800781 C 9.601562 3.464844 9.0625 4 8.398438 4 C 7.738281 4 7.199219 3.464844 7.199219 2.800781 Z M 7.199219 2.800781 "/>
<path style=" stroke:none;fill-rule:nonzero;fill:rgb(98.823529%,49.803922%,49.803922%);fill-opacity:1;" d="M 2.691406 9.183594 L 4.089844 9.585938 L 5.488281 9.984375 C 5.582031 10.011719 5.675781 10 5.761719 9.964844 C 5.84375 9.929688 5.914062 9.863281 5.957031 9.777344 L 6.753906 8.183594 L 7.441406 8.640625 L 8.125 9.097656 L 9.6875 11.050781 C 9.84375 11.242188 10.070312 11.226562 10.230469 11.113281 C 10.386719 10.996094 10.46875 10.785156 10.332031 10.578125 L 9.53125 9.378906 L 8.734375 8.179688 C 8.726562 8.167969 8.71875 8.15625 8.710938 8.144531 C 8.703125 8.136719 8.691406 8.125 8.683594 8.117188 L 7.421875 6.855469 L 8.070312 5.558594 L 8.472656 6.097656 L 8.878906 6.640625 C 8.945312 6.726562 9.035156 6.777344 9.132812 6.792969 C 9.230469 6.8125 9.332031 6.792969 9.421875 6.734375 L 10.023438 6.332031 L 10.621094 5.933594 C 10.714844 5.871094 10.773438 5.777344 10.792969 5.679688 C 10.8125 5.578125 10.792969 5.46875 10.734375 5.378906 C 10.671875 5.285156 10.578125 5.226562 10.480469 5.207031 C 10.378906 5.1875 10.269531 5.207031 10.179688 5.265625 L 9.734375 5.5625 L 9.292969 5.855469 L 8.804688 5.207031 L 8.320312 4.558594 C 8.296875 4.527344 8.265625 4.5 8.234375 4.476562 C 8.199219 4.453125 8.164062 4.433594 8.125 4.421875 L 7.527344 4.21875 L 6.925781 4.019531 C 6.894531 4.011719 6.859375 4.003906 6.824219 4 C 6.789062 4 6.753906 4 6.722656 4.007812 L 4.722656 4.40625 C 4.644531 4.421875 4.578125 4.460938 4.523438 4.511719 C 4.46875 4.5625 4.429688 4.628906 4.410156 4.703125 L 4.011719 6.304688 C 3.949219 6.550781 4.113281 6.726562 4.304688 6.773438 C 4.5 6.824219 4.726562 6.746094 4.789062 6.496094 L 5.125 5.144531 L 5.664062 5.035156 L 6.203125 4.929688 L 5.910156 5.800781 L 5.621094 6.671875 C 5.617188 6.683594 5.613281 6.695312 5.613281 6.703125 C 5.609375 6.714844 5.605469 6.722656 5.605469 6.734375 L 5.269531 8.75 L 2.855469 8.40625 C 2.617188 8.367188 2.460938 8.53125 2.417969 8.71875 C 2.378906 8.90625 2.457031 9.117188 2.691406 9.183594 Z M 2.691406 9.183594 "/>
</g>
</svg>
