<?xml version="1.0" encoding="UTF-8"?>
<svg xmlns="http://www.w3.org/2000/svg" xmlns:xlink="http://www.w3.org/1999/xlink" width="16px" height="16px" viewBox="0 0 16 16" version="1.1">
<g id="surface1">
<path style=" stroke:none;fill-rule:nonzero;fill:rgb(87.843137%,87.843137%,87.843137%);fill-opacity:1;" d="M 14.71875 5.683594 C 14.6875 5.652344 14.65625 5.621094 14.621094 5.59375 C 14.933594 4.976562 14.832031 4.199219 14.316406 3.683594 C 14.285156 3.652344 14.253906 3.621094 14.222656 3.59375 C 14.535156 2.976562 14.433594 2.199219 13.917969 1.683594 C 13.402344 1.167969 12.625 1.066406 12.003906 1.378906 C 11.976562 1.34375 11.949219 1.3125 11.917969 1.28125 C 11.273438 0.640625 10.226562 0.640625 9.585938 1.28125 L 6 4.867188 L 6 4.800781 C 6 3.476562 4.921875 2.398438 3.601562 2.398438 C 3.175781 2.398438 2.828125 2.726562 2.800781 3.148438 L 2.421875 9.25 L 1.035156 10.632812 C 0.722656 10.945312 0.722656 11.453125 1.035156 11.765625 L 4.234375 14.964844 C 4.390625 15.121094 4.59375 15.199219 4.800781 15.199219 C 4.984375 15.199219 5.171875 15.136719 5.320312 15.007812 L 6.503906 13.992188 C 8.023438 13.917969 9.4375 13.292969 10.519531 12.210938 L 14.71875 8.015625 C 15.359375 7.371094 15.359375 6.324219 14.71875 5.683594 Z M 4.820312 13.855469 L 2.164062 11.199219 L 3.589844 9.777344 L 3.972656 3.660156 C 4.453125 3.816406 4.800781 4.269531 4.800781 4.800781 L 4.800781 6.964844 L 4.917969 7.082031 C 5.644531 7.808594 5.644531 8.992188 4.917969 9.71875 L 5.484375 10.28125 C 6.425781 9.339844 6.511719 7.863281 5.746094 6.820312 L 10.433594 2.132812 C 10.609375 1.957031 10.894531 1.957031 11.070312 2.132812 C 11.242188 2.304688 11.242188 2.589844 11.070312 2.765625 L 8.515625 5.316406 L 9.082031 5.882812 L 12.433594 2.53125 C 12.609375 2.355469 12.894531 2.355469 13.070312 2.53125 C 13.242188 2.707031 13.242188 2.992188 13.070312 3.164062 L 9.71875 6.515625 L 10.28125 7.082031 L 12.835938 4.53125 C 13.007812 4.355469 13.292969 4.355469 13.46875 4.53125 C 13.644531 4.707031 13.644531 4.992188 13.46875 5.164062 L 10.515625 8.117188 L 11.082031 8.683594 L 13.234375 6.53125 C 13.410156 6.355469 13.695312 6.355469 13.867188 6.53125 C 14.042969 6.707031 14.042969 6.992188 13.867188 7.164062 L 9.671875 11.363281 C 8.746094 12.289062 7.511719 12.800781 6.199219 12.800781 L 6.050781 12.800781 Z M 4.820312 13.855469 "/>
</g>
</svg>
