<?xml version="1.0" encoding="UTF-8"?>
<svg xmlns="http://www.w3.org/2000/svg" xmlns:xlink="http://www.w3.org/1999/xlink" width="32px" height="32px" viewBox="0 0 32 32" version="1.1">
<g id="surface1">
<path style=" stroke:none;fill-rule:nonzero;fill:rgb(98.823529%,74.901961%,49.411765%);fill-opacity:1;" d="M 19.199219 3.199219 L 28.800781 3.199219 L 28.800781 9.597656 L 19.199219 9.597656 Z M 19.199219 3.199219 "/>
<path style=" stroke:none;fill-rule:nonzero;fill:rgb(98.823529%,74.901961%,49.411765%);fill-opacity:1;" d="M 3.199219 3.199219 L 16 3.199219 L 16 9.597656 L 3.199219 9.597656 Z M 3.199219 3.199219 "/>
<path style=" stroke:none;fill-rule:nonzero;fill:rgb(98.823529%,74.901961%,49.411765%);fill-opacity:1;" d="M 22.402344 22.402344 L 28.800781 22.402344 L 28.800781 28.800781 L 22.402344 28.800781 Z M 22.402344 22.402344 "/>
<path style=" stroke:none;fill-rule:nonzero;fill:rgb(98.823529%,74.901961%,49.411765%);fill-opacity:1;" d="M 3.199219 22.402344 L 19.199219 22.402344 L 19.199219 28.800781 L 3.199219 28.800781 Z M 3.199219 22.402344 "/>
<path style=" stroke:none;fill-rule:nonzero;fill:rgb(98.823529%,74.901961%,49.411765%);fill-opacity:1;" d="M 3.199219 12.800781 L 9.597656 12.800781 L 9.597656 19.199219 L 3.199219 19.199219 Z M 3.199219 12.800781 "/>
<path style=" stroke:none;fill-rule:nonzero;fill:rgb(98.823529%,74.901961%,49.411765%);fill-opacity:1;" d="M 12.800781 12.800781 L 28.800781 12.800781 L 28.800781 19.199219 L 12.800781 19.199219 Z M 12.800781 12.800781 "/>
</g>
</svg>
