<svg xmlns="http://www.w3.org/2000/svg" xmlns:xlink="http://www.w3.org/1999/xlink" width="32px" height="32px" viewBox="0 0 32 32" version="1.1">
<g id="surface1">
<path style=" stroke:none;fill-rule:nonzero;fill:#7eaafb;fill-opacity:1;" d="M 27.839844 23.359375 L 24.257812 19.710938 C 25.121094 18.144531 25.601562 16.320312 25.601562 14.398438 C 25.601562 8.222656 20.574219 3.199219 14.398438 3.199219 C 8.222656 3.199219 3.199219 8.222656 3.199219 14.398438 C 3.199219 20.574219 8.222656 25.601562 14.398438 25.601562 C 16.320312 25.601562 18.144531 25.121094 19.710938 24.257812 L 23.328125 27.871094 C 24.574219 29.121094 26.59375 29.121094 27.839844 27.871094 C 29.089844 26.625 29.089844 24.609375 27.839844 23.359375 Z M 14.398438 22.398438 C 9.984375 22.398438 6.398438 18.816406 6.398438 14.398438 C 6.398438 9.984375 9.984375 6.398438 14.398438 6.398438 C 18.816406 6.398438 22.398438 9.984375 22.398438 14.398438 C 22.398438 18.816406 18.816406 22.398438 14.398438 22.398438 Z M 14.398438 22.398438 "/>
</g>
</svg>