<svg xmlns="http://www.w3.org/2000/svg" xmlns:xlink="http://www.w3.org/1999/xlink" width="32px" height="32px" viewBox="0 0 32 32" version="1.1">
<g id="surface1">
<path style=" stroke:none;fill-rule:nonzero;fill:#fc7f7f;fill-opacity:1;" d="M 26.898438 26.140625 C 26.109375 24.8125 24.679688 24 23.132812 24 C 20.851562 24 17.6875 21.242188 17.6875 21.242188 C 17.140625 20.96875 16.796875 20.414062 16.796875 19.8125 C 16.796875 18.335938 16.929688 16.875 17.1875 15.421875 L 17.195312 15.367188 C 18 10.820312 19.203125 6.21875 19.203125 1.601562 L 8 1.601562 C 7.015625 4.007812 6.398438 6.9375 6.398438 9.539062 C 6.398438 10.648438 6.492188 11.75 6.671875 12.835938 L 7.203125 16 L 7.203125 17.742188 C 7.203125 18.710938 7.117188 19.679688 6.960938 20.640625 C 6.585938 22.875 5.601562 23.734375 5.601562 26 C 5.601562 28.429688 7.570312 30.398438 10 30.398438 C 11.492188 30.398438 12.90625 29.609375 14.398438 29.609375 L 17.601562 29.609375 C 18.695312 29.609375 19.703125 30.398438 20.796875 30.398438 L 24.4375 30.398438 C 25.15625 30.398438 25.84375 30.117188 26.359375 29.609375 L 26.476562 29.492188 C 27.375 28.601562 27.546875 27.21875 26.898438 26.140625 Z M 24.671875 27.90625 C 24.601562 27.96875 24.523438 28 24.4375 28 L 20.804688 28 C 20.671875 27.992188 20.296875 27.851562 20.046875 27.757812 C 19.398438 27.515625 18.585938 27.210938 17.601562 27.210938 L 14.398438 27.203125 C 13.328125 27.203125 12.390625 27.460938 11.570312 27.6875 C 10.976562 27.851562 10.421875 28 10 28 C 8.898438 28 8 27.101562 8 26 C 8 25.148438 8.203125 24.625 8.507812 23.835938 C 8.78125 23.125 9.125 22.234375 9.328125 21.03125 C 9.507812 19.945312 9.601562 18.84375 9.601562 17.742188 L 9.601562 15.804688 L 9.570312 15.601562 L 9.039062 12.445312 C 8.882812 11.484375 8.796875 10.507812 8.796875 9.539062 C 8.796875 7.804688 9.125 5.820312 9.6875 4 L 16.695312 4 C 16.484375 6.46875 15.992188 8.960938 15.476562 11.5625 C 15.257812 12.671875 15.03125 13.820312 14.828125 14.953125 L 14.820312 15.007812 C 14.539062 16.585938 14.398438 18.203125 14.398438 19.8125 C 14.398438 21.21875 15.117188 22.492188 16.304688 23.21875 C 17.257812 24.023438 20.335938 26.398438 23.132812 26.398438 C 23.757812 26.398438 24.34375 26.695312 24.71875 27.1875 C 24.882812 27.40625 24.859375 27.710938 24.671875 27.90625 Z M 24.671875 27.90625 "/>
<path style=" stroke:none;fill-rule:nonzero;fill:#fc7f7f;fill-opacity:1;" d="M 11.203125 22.398438 L 12.796875 22.398438 L 12.796875 24 L 11.203125 24 Z M 11.203125 22.398438 "/>
<path style=" stroke:none;fill-rule:nonzero;fill:#fc7f7f;fill-opacity:1;" d="M 12.796875 5.632812 C 12.796875 8.734375 12.28125 11.679688 11.773438 14.53125 L 13.351562 14.8125 C 13.867188 11.890625 14.398438 8.875 14.398438 5.632812 Z M 12.796875 5.632812 "/>
</g>
</svg>