<?xml version="1.0" encoding="UTF-8"?>
<svg xmlns="http://www.w3.org/2000/svg" xmlns:xlink="http://www.w3.org/1999/xlink" width="32px" height="32px" viewBox="0 0 32 32" version="1.1">
<g id="surface1">
<path style=" stroke:none;fill-rule:nonzero;fill:rgb(87.843137%,87.843137%,87.843137%);fill-opacity:1;" d="M 6.398438 8 L 5.304688 11.28125 C 5.003906 12.1875 4.15625 12.800781 3.199219 12.800781 L 3.199219 14.398438 C 4.734375 14.398438 5.78125 15.949219 5.210938 17.371094 L 4.128906 20.9375 C 3.511719 22.96875 3.199219 25.078125 3.199219 27.199219 L 11.199219 27.199219 L 12.542969 20.484375 C 12.691406 19.738281 13.347656 19.199219 14.113281 19.199219 L 17.601562 19.199219 C 19.367188 19.199219 20.800781 17.765625 20.800781 16 C 20.800781 15.117188 21.515625 14.398438 22.398438 14.398438 L 28.800781 14.398438 L 28.800781 8 Z M 14.398438 17.601562 C 13.515625 17.601562 12.800781 16.882812 12.800781 16 L 12.800781 14.398438 C 13.683594 14.398438 14.398438 15.117188 14.398438 16 C 14.398438 16.882812 15.117188 17.601562 16 17.601562 Z M 17.601562 17.601562 C 16.714844 17.601562 16 16.882812 16 16 L 16 14.398438 L 17.601562 14.398438 C 18.484375 14.398438 19.199219 15.117188 19.199219 16 C 19.199219 16.882812 18.484375 17.601562 17.601562 17.601562 Z M 17.601562 17.601562 "/>
</g>
</svg>
