<?xml version="1.0" encoding="UTF-8"?>
<svg xmlns="http://www.w3.org/2000/svg" xmlns:xlink="http://www.w3.org/1999/xlink" width="32px" height="32px" viewBox="0 0 32 32" version="1.1">
<g id="surface1">
<path style=" stroke:none;fill-rule:nonzero;fill:rgb(87.843137%,87.843137%,87.843137%);fill-opacity:1;" d="M 27.199219 11.199219 L 20.800781 11.199219 L 20.800781 4.800781 C 20.800781 3.917969 20.082031 3.199219 19.199219 3.199219 L 12.800781 3.199219 C 11.917969 3.199219 11.199219 3.917969 11.199219 4.800781 L 11.199219 11.199219 L 4.800781 11.199219 C 3.917969 11.199219 3.199219 11.917969 3.199219 12.800781 L 3.199219 19.199219 C 3.199219 20.082031 3.917969 20.800781 4.800781 20.800781 L 11.199219 20.800781 L 11.199219 27.199219 C 11.199219 28.082031 11.917969 28.800781 12.800781 28.800781 L 19.199219 28.800781 C 20.082031 28.800781 20.800781 28.082031 20.800781 27.199219 L 20.800781 20.800781 L 27.199219 20.800781 C 28.082031 20.800781 28.800781 20.082031 28.800781 19.199219 L 28.800781 12.800781 C 28.800781 11.917969 28.082031 11.199219 27.199219 11.199219 Z M 8 17.601562 L 5.601562 16 L 8 14.398438 Z M 16 26.398438 L 14.398438 24 L 17.601562 24 Z M 14.398438 8 L 16 5.601562 L 17.601562 8 Z M 24 17.601562 L 24 14.398438 L 26.398438 16 Z M 24 17.601562 "/>
</g>
</svg>
