<?xml version="1.0" encoding="utf-8"?>
<!-- Bullet icon by Arthur Shlain from Usefulicons.com -->
<svg xmlns="http://www.w3.org/2000/svg" xmlns:xlink="http://www.w3.org/1999/xlink" xml:space="preserve" version="1.1" x="0px" y="0px" viewBox="0 0 100 100" width="400px" height="400px"><g style="fill: #ff6a6a"><path d="M67.259,14.937l-7.517,7.517c-1.904,1.904-4.291,3.255-6.902,3.908c-3.93,0.982-7.522,3.016-10.387,5.881L5,69.697
	L30.303,95l37.454-37.454c2.865-2.865,4.898-6.457,5.881-10.387c0.653-2.611,2.004-4.998,3.908-6.902l7.517-7.517
	C91.471,26.333,95,17.813,95,8.75V5h-3.75C82.188,5,73.667,8.529,67.259,14.937z M30.303,84.394L15.606,69.697l3.081-3.081
	l14.697,14.697L30.303,84.394z M66.362,45.341c-0.653,2.611-2.004,4.998-3.908,6.902L36.919,77.778L22.222,63.081l25.535-25.534
	c1.904-1.904,4.291-3.255,6.902-3.908c2.584-0.646,5.016-1.754,7.197-3.247l7.752,7.752C68.116,40.325,67.008,42.757,66.362,45.341z
	 M79.759,27.437l-6.894,6.894l-7.196-7.196l6.894-6.894c4.021-4.022,9.111-6.588,14.629-7.433
	C86.347,18.326,83.781,23.416,79.759,27.437z" stroke="none"></path></g></svg>