<?xml version="1.0" encoding="UTF-8"?>
<svg xmlns="http://www.w3.org/2000/svg" xmlns:xlink="http://www.w3.org/1999/xlink" width="32px" height="32px" viewBox="0 0 32 32" version="1.1">
<g id="surface1">
<path style=" stroke:none;fill-rule:nonzero;fill:rgb(87.843137%,87.843137%,87.843137%);fill-opacity:1;" d="M 16 8 C 8.929688 8 3.203125 16 3.203125 16 C 3.203125 16 8.929688 24 16 24 C 23.070312 24 28.796875 16 28.796875 16 C 28.796875 16 23.070312 8 16 8 Z M 16 20.796875 C 13.351562 20.796875 11.203125 18.648438 11.203125 16 C 11.203125 13.351562 13.351562 11.203125 16 11.203125 C 18.648438 11.203125 20.796875 13.351562 20.796875 16 C 20.796875 18.648438 18.648438 20.796875 16 20.796875 Z M 16 20.796875 "/>
<path style=" stroke:none;fill-rule:nonzero;fill:rgb(87.843137%,87.843137%,87.843137%);fill-opacity:1;" d="M 13.601562 16 C 13.601562 14.671875 14.671875 13.601562 16 13.601562 C 17.328125 13.601562 18.398438 14.671875 18.398438 16 C 18.398438 17.328125 17.328125 18.398438 16 18.398438 C 14.671875 18.398438 13.601562 17.328125 13.601562 16 Z M 13.601562 16 "/>
</g>
</svg>
