<?xml version="1.0" encoding="UTF-8"?>
<svg xmlns="http://www.w3.org/2000/svg" xmlns:xlink="http://www.w3.org/1999/xlink" width="32px" height="32px" viewBox="0 0 32 32" version="1.1">
<g id="surface1">
<path style=" stroke:none;fill-rule:nonzero;fill:rgb(98.823529%,49.803922%,49.803922%);fill-opacity:1;" d="M 16.15625 3.203125 C 11.199219 3.199219 8 6.398438 8 11.382812 C 8 22.398438 9.601562 22.398438 9.601562 28.800781 L 22.398438 28.800781 C 22.398438 22.398438 24 22.398438 24 11.203125 C 24 6.398438 20.800781 3.207031 16.15625 3.203125 Z M 9.601562 13.601562 C 9.601562 12.273438 10.316406 11.199219 11.199219 11.199219 C 13.261719 11.199219 14.398438 12.605469 14.398438 13.601562 C 14.398438 14.59375 13.261719 16 11.199219 16 C 10.316406 16 9.601562 14.925781 9.601562 13.601562 Z M 16 22.398438 C 14.234375 22.398438 12.800781 21.683594 12.800781 20.800781 C 12.800781 19.917969 14.234375 19.199219 16 19.199219 C 17.765625 19.199219 19.199219 19.917969 19.199219 20.800781 C 19.199219 21.683594 17.765625 22.398438 16 22.398438 Z M 20.800781 16 C 18.738281 16 17.601562 14.59375 17.601562 13.601562 C 17.601562 12.605469 18.738281 11.199219 20.800781 11.199219 C 21.683594 11.199219 22.398438 12.273438 22.398438 13.601562 C 22.398438 14.925781 21.683594 16 20.800781 16 Z M 20.800781 16 "/>
</g>
</svg>
