<?xml version="1.0" encoding="utf-8"?>
<!-- Leg icon by Arthur Shlain from Usefulicons.com -->
<svg xmlns="http://www.w3.org/2000/svg" xmlns:xlink="http://www.w3.org/1999/xlink" xml:space="preserve" version="1.1" x="0px" y="0px" viewBox="0 0 100 100" width="400px" height="400px"><g style="fill: #ff6a6a"><path d="M84.066,81.683C81.591,77.538,77.119,75,72.291,75L72.291,75C65.167,75,55.264,66.382,55.264,66.382C53.57,65.535,52.5,63.804,52.5,61.91C52.5,57.312,52.902,52.723,53.701,48.196L53.731,48.024C56.239,33.82,60,19.424,60,5L25,5C21.922,12.527,20,21.683,20,29.815C20,33.266,20.285,36.71,20.852,40.114L22.5,50L22.5,55.447C22.5,58.477,22.25,61.502,21.752,64.491C20.586,71.485,17.5,74.159,17.5,81.25C17.5,88.844,23.656,95,31.25,95C35.904,95,40.337,92.521,44.99,92.521C44.993,92.521,44.996,92.521,45,92.521L55,92.529C58.434,92.531,61.566,95,65,95L76.357,95C78.609,95,80.77,94.11,82.37,92.524L82.744,92.153C85.538,89.381,86.083,85.062,84.066,81.683L84.066,81.683ZM77.088,87.199C76.892,87.393,76.633,87.5,76.357,87.5L65.007,87.5C64.604,87.484,63.421,87.039,62.638,86.744C60.608,85.98,58.083,85.03,55.005,85.028L44.99,85.021C41.659,85.021,38.73,85.82,36.146,86.525C34.308,87.027,32.572,87.5,31.25,87.5C27.804,87.5,25,84.696,25,81.25C25,78.595,25.631,76.961,26.586,74.489C27.449,72.255,28.524,69.475,29.149,65.723C29.714,62.337,30,58.88,30,55.447L30,50L30,49.379L29.898,48.767L28.25,38.881C27.752,35.894,27.5,32.844,27.5,29.815C27.5,24.385,28.511,18.19,30.276,12.5L52.165,12.5C51.506,20.207,49.967,28.004,48.36,36.142C47.677,39.602,46.971,43.179,46.346,46.72L46.316,46.891C45.443,51.836,45,56.889,45,61.91C45,66.303,47.251,70.288,50.942,72.553C53.939,75.063,63.559,82.5,72.291,82.5C74.24,82.5,76.084,83.431,77.248,84.968C77.761,85.645,77.691,86.601,77.088,87.199Z" stroke="none"></path><path d="M35,70L40,70L40,75L35,75L35,70Z" stroke="none"></path><path d="M40,17.609C40,27.291,38.373,36.505,36.8,45.416L41.724,46.285C43.334,37.162,45,27.729,45,17.609L40,17.609Z" stroke="none"></path></g></svg>