<?xml version="1.0" encoding="UTF-8"?>
<svg xmlns="http://www.w3.org/2000/svg" xmlns:xlink="http://www.w3.org/1999/xlink" width="32px" height="32px" viewBox="0 0 32 32" version="1.1">
<g id="surface1">
<path style=" stroke:none;fill-rule:nonzero;fill:rgb(87.843137%,87.843137%,87.843137%);fill-opacity:1;" d="M 3.105469 8.207031 C 2.425781 8.546875 2 9.242188 2 10 L 2 22 C 2 22.757812 2.429688 23.449219 3.105469 23.789062 L 15.105469 29.789062 C 15.667969 30.070312 16.332031 30.070312 16.894531 29.789062 L 28.894531 23.789062 C 29.570312 23.449219 30 22.757812 30 22 L 30 10 C 30 9.242188 29.570312 8.550781 28.894531 8.210938 L 16.894531 2.210938 C 16.332031 1.929688 15.667969 1.929688 15.105469 2.210938 Z M 16 6.207031 L 23.527344 9.972656 L 16 13.734375 L 8.472656 9.972656 Z M 6 13.207031 L 14 17.207031 L 14 24.738281 L 6 20.738281 Z M 6 13.207031 "/>
</g>
</svg>
